<svg xmlns="http://www.w3.org/2000/svg" viewBox="0 0 60 72" width="40" height="48">
  <!-- Заглушка герба г.о. Солнечногорск: заменить официальным файлом -->
  <defs>
    <clipPath id="shield">
      <path d="M3 2 H57 V42 C57 58 30 70 30 70 C30 70 3 58 3 42 Z"/>
    </clipPath>
  </defs>
  <g clip-path="url(#shield)">
    <rect x="0" y="0" width="60" height="72" fill="#2E86DE"/>
    <!-- чёрное подножие -->
    <rect x="0" y="38" width="60" height="34" fill="#1B1B1B"/>
    <!-- золотая горка -->
    <path d="M2 38 L30 26 L58 38 Z" fill="#F2C200"/>
    <!-- солнце с лучами -->
    <g fill="#F2C200">
      <circle cx="30" cy="14" r="6"/>
      <g stroke="#F2C200" stroke-width="2.4" stroke-linecap="round">
        <path d="M30 3.5v3M30 21.5v3M19.5 14h3M37.5 14h3M22.6 6.6l2.1 2.1M35.3 19.3l2.1 2.1M37.4 6.6l-2.1 2.1M24.7 19.3l-2.1 2.1"/>
      </g>
    </g>
    <!-- три подсолнуха -->
    <g>
      <g transform="translate(15 50)">
        <g stroke="#F2C200" stroke-width="2.2" stroke-linecap="round"><path d="M0 -7.5v15M-7.5 0h15M-5.3 -5.3l10.6 10.6M5.3 -5.3l-10.6 10.6"/></g>
        <circle r="4.6" fill="#F2C200"/><circle r="2" fill="#8A6D00"/>
      </g>
      <g transform="translate(30 52)">
        <g stroke="#F2C200" stroke-width="2.2" stroke-linecap="round"><path d="M0 -7.5v15M-7.5 0h15M-5.3 -5.3l10.6 10.6M5.3 -5.3l-10.6 10.6"/></g>
        <circle r="4.6" fill="#F2C200"/><circle r="2" fill="#8A6D00"/>
      </g>
      <g transform="translate(45 50)">
        <g stroke="#F2C200" stroke-width="2.2" stroke-linecap="round"><path d="M0 -7.5v15M-7.5 0h15M-5.3 -5.3l10.6 10.6M5.3 -5.3l-10.6 10.6"/></g>
        <circle r="4.6" fill="#F2C200"/><circle r="2" fill="#8A6D00"/>
      </g>
    </g>
  </g>
  <path d="M3 2 H57 V42 C57 58 30 70 30 70 C30 70 3 58 3 42 Z" fill="none" stroke="#0A4485" stroke-width="1.6"/>
</svg>
